<svg width="210" height="182" viewBox="0 0 210 182" fill="none" xmlns="http://www.w3.org/2000/svg">
<g clip-path="url(#clip0_17215_5229)">
<path d="M127 129.27V50H161.235C166.542 50 171.395 51.2079 175.793 53.6238C180.267 56.0396 183.83 59.3992 186.484 63.7024C189.138 67.9302 190.465 72.8374 190.465 78.4241C190.465 84.0107 189.138 88.9935 186.484 93.3722C183.83 97.6754 180.305 101.035 175.907 103.451C171.509 105.867 166.618 107.075 161.235 107.075H146.108L136.544 113.303L127 129.27ZM146.108 91.1073H159.074C161.348 91.1073 163.396 90.6166 165.216 89.6352C167.035 88.6537 168.514 87.2193 169.651 85.3319C170.789 83.4445 171.357 81.1797 171.357 78.5373C171.357 75.895 170.789 73.6301 169.651 71.7427C168.514 69.8553 166.997 68.4209 165.102 67.4395C163.282 66.3825 161.273 65.8541 159.074 65.8541H146.108V91.1073Z" fill="white"/>
<mask id="mask0_17215_5229" style="mask-type:alpha" maskUnits="userSpaceOnUse" x="21" y="20" width="115" height="133">
<path d="M83.9204 45.1012C84.1935 38.2829 82.9267 31.1782 80.4035 23.8403C79.7568 21.9593 81.1594 20 83.1482 20H87.1243C88.5048 20 89.7214 20.9626 89.9901 22.3166C91.4518 29.6929 91.911 37.3867 91.5699 45.3344C91.5035 46.8832 90.2027 48.1013 88.6524 48.1013H86.8157C85.1724 48.1028 83.854 46.7445 83.9204 45.1012Z" fill="#DD7128"/>
<path d="M63.6006 152.081C87.0937 152.081 106.139 126.893 106.139 95.8213C106.139 64.7496 87.0937 39.561 63.6006 39.561C40.1074 39.561 21.0625 64.7496 21.0625 95.8213C21.0625 126.893 40.1074 152.081 63.6006 152.081Z" fill="#F77D2B"/>
<path d="M111.408 152.081C134.901 152.081 134.049 126.893 134.049 95.8213C134.049 64.7496 143.996 39.561 111.408 39.561C87.9151 39.561 68.8701 64.7496 68.8701 95.8213C68.8701 126.893 87.9151 152.081 111.408 152.081Z" fill="#F77D2B"/>
<path d="M83.9776 152.081C108.744 152.081 128.82 126.893 128.82 95.8213C128.82 64.7496 108.744 39.561 83.9776 39.561C59.2116 39.561 39.1348 64.7496 39.1348 95.8213C39.1348 126.893 59.2116 152.081 83.9776 152.081Z" fill="#DD7128"/>
<path d="M87.505 152.081C107.338 152.081 123.415 126.893 123.415 95.8213C123.415 64.7496 107.338 39.561 87.505 39.561C67.6723 39.561 51.5947 64.7496 51.5947 95.8213C51.5947 126.893 67.6723 152.081 87.505 152.081Z" fill="#F77D2B"/>
</mask>
<g mask="url(#mask0_17215_5229)">
<path d="M102.592 142.865L81.7557 61.8105C81.1627 59.8356 78.7733 59.4675 77.3427 61.0464L63.752 76.0456L41.2766 36.9924C40.5128 35.5816 38.3104 35.3829 37.0586 36.7644L14.5267 61.6314C13.6326 62.6182 13.478 63.9157 14.2337 64.9598L55.7494 120.187C56.692 121.401 58.7076 121.43 59.7805 120.246L70.3312 108.602L98.0652 145.232C99.5847 147.687 103.389 145.743 102.592 142.865Z" fill="#D0651D"/>
<path d="M101.117 148.363L79.6561 72.6901C79.0536 70.8441 76.8172 70.4428 75.5234 71.8706L63.2328 85.435L41.3009 48.6619C40.5534 47.3347 38.4955 47.095 37.3635 48.3444L16.9869 70.8327C16.1783 71.725 16.0669 72.9241 16.7976 73.9112L56.884 126.159C57.7932 127.308 59.6727 127.386 60.643 126.315L70.1844 115.785L96.957 150.443C98.4351 152.758 101.932 151.051 101.117 148.363Z" fill="url(#paint0_linear_17215_5229)"/>
</g>
<g clip-path="url(#clip1_17215_5229)">
<path d="M168.704 4.6559L168.347 4.69433L168.309 5.1748C168.218 6.21902 167.427 7.66043 166 9.39652C165.332 10.2037 162.972 12.5548 162.058 13.3236C159.237 15.6875 156.727 17.1545 155.495 17.1545C155.139 17.1545 155.067 17.1353 154.899 16.9751C154.724 16.8086 154.691 16.6804 154.179 14.1436C153.362 10.0628 152.623 6.89168 152.247 5.81543L152.124 5.46308L152.052 5.71933C152.013 5.86027 151.76 6.8084 151.488 7.8334C150.801 10.4087 150.405 11.8693 150.386 11.8886C150.379 11.895 150.165 11.8629 149.906 11.8053C149.147 11.6515 147.909 11.517 147.176 11.517C145.879 11.517 144.602 11.8309 143.019 12.542C142.611 12.7214 142.235 12.8879 142.177 12.9071C142.092 12.9328 141.703 12.305 140.426 10.0948L138.779 7.25683L138.759 8.73027C138.74 10.2165 138.805 12.1512 138.98 14.9123C139.025 15.7387 139.103 16.9751 139.148 17.6478C139.233 19.0764 139.22 19.1468 138.753 19.3518C138.5 19.4607 138.364 19.4736 137.715 19.4415C134.901 19.3198 128.819 16.5523 125.453 13.8681C124.182 12.8559 123.19 11.6836 122.989 10.9661C122.944 10.7931 122.898 10.6457 122.892 10.6329C122.886 10.6265 122.445 10.7034 121.913 10.8059C118.586 11.4657 115.461 12.9007 112.614 15.0789C111.726 15.7579 109.845 17.5837 109.158 18.4357C108.399 19.3839 107.732 20.4089 107.239 21.4018C106.707 22.4589 106.467 23.1187 106.221 24.1757C106.072 24.8292 106.046 25.0854 106.039 25.9631C106.033 26.5268 106.059 27.129 106.084 27.302L106.143 27.6095L106.59 27.1226C107.589 26.0528 109.041 25.3737 110.773 25.1559C111.596 25.0534 113.042 25.1175 113.807 25.2904C114.936 25.5403 116.09 26.1745 117.497 27.3084L118.301 27.9618L118.949 27.3084C119.968 26.2706 120.791 25.7453 121.816 25.4698C122.458 25.2968 123.949 25.284 124.662 25.4442C126.063 25.7517 127.476 26.4243 129.357 27.6736C129.668 27.8786 129.947 28.0451 129.973 28.0451C129.999 28.0387 130.187 27.8017 130.381 27.5134C131.717 25.5403 133.864 24.3295 136.036 24.3295C137.06 24.3295 137.748 24.5601 138.597 25.1879C139.252 25.6748 139.829 26.3475 141.074 28.0579C141.969 29.2879 142.494 29.9029 143.078 30.3962C144.686 31.7671 146.275 32.4014 148.097 32.4014C149.984 32.4014 151.696 31.6326 153.103 30.1528C154.036 29.1726 154.685 28.0579 155.372 26.2514C156.274 23.8875 156.669 23.1507 157.454 22.3692C158.31 21.5107 159.114 21.1968 160.599 21.1456C161.318 21.12 161.591 21.1392 162.129 21.2481C163.471 21.5236 164.762 22.1898 165.767 23.1315C165.909 23.2725 166.058 23.375 166.091 23.3621C166.123 23.3493 166.538 22.9073 167.012 22.3884C169.301 19.8707 171.175 18.8073 173.308 18.8073C174.475 18.8073 175.377 19.1084 176.732 19.9348C177.069 20.1398 177.361 20.2807 177.387 20.2551C177.413 20.2231 177.62 19.9348 177.847 19.6209C178.716 18.4037 179.695 17.3787 180.48 16.8662C181.238 16.3665 182.509 15.9117 183.715 15.7067C184.461 15.5786 186.115 15.617 186.698 15.7707C187.386 15.9565 187.969 16.2128 188.488 16.5523C188.773 16.7317 189 16.847 189 16.8021C189 16.7573 188.955 16.469 188.903 16.1551C188.468 13.6503 186.86 11.2415 184.28 9.22355C181.109 6.73793 177.062 5.13637 172.822 4.69433C171.92 4.59824 169.456 4.57902 168.704 4.6559Z" fill="white"/>
</g>
<path d="M70.4 45.5005L70.3999 45.5001C68.0559 38.6824 73.1369 31.6182 80.3102 31.6182H83.7072C88.5557 31.6182 93.0012 34.9943 94.0026 40.0399L94.003 40.0423C95.3958 47.0707 95.8118 54.2921 95.498 61.6058M70.4 45.5005L83.4436 63.6267M70.4 45.5005C72.3127 51.0629 73.1608 56.1277 72.9765 60.7404L80.9699 61.0635M70.4 45.5005L72.9764 60.7433L80.9699 61.0635M95.498 61.6058L88.9658 61.3255C88.9651 61.3449 88.9643 61.3644 88.9635 61.3838C88.9643 61.3643 88.965 61.3449 88.9656 61.3255L87.5054 61.2628M95.498 61.6058L88.9658 61.3255C89.2013 55.2572 88.2493 49.1615 86.4409 43.126C86.3513 42.6147 86.2563 42.1051 86.1556 41.5973C86.0689 41.1602 85.8665 40.7708 85.5845 40.4555C85.5666 40.403 85.5487 40.3506 85.5306 40.2981M95.498 61.6058C95.2532 67.3129 90.5185 71.6267 85.0128 71.6267H83.4508H83.4436V63.6267M87.5054 61.2628L88.9656 61.3255C89.0092 59.8572 88.4821 58.5211 87.5958 57.5123C87.5898 58.7548 87.5593 60.0051 87.5054 61.2628ZM87.5054 61.2628C87.5045 61.2837 87.5033 61.3045 87.5019 61.3252C87.5018 61.326 87.5018 61.3268 87.5017 61.3276C87.4121 62.6199 86.3156 63.6267 85.0128 63.6267H83.4436M83.4436 63.6267C82.0396 63.628 80.9132 62.4675 80.9699 61.0635M80.9699 61.0635C80.971 61.0366 80.9721 61.0096 80.9731 60.9826C80.9731 60.9826 80.9731 60.9826 80.9731 60.9825C81.0178 59.8055 81.0088 58.6185 80.9482 57.4219C80.1119 58.3355 79.5718 59.544 79.5127 60.9199C79.7526 55.3299 79.4853 50.0118 78.6405 44.971C78.4288 44.2829 78.2036 43.5922 77.9652 42.8991C77.4127 41.2921 78.6111 39.6182 80.3102 39.6182H83.7072C84.3763 39.6182 85.0002 39.8828 85.4569 40.323L85.5305 40.2977C85.5305 40.2979 85.5306 40.298 85.5306 40.2981M85.5306 40.2981L85.4573 40.3234C85.5 40.3646 85.5413 40.4073 85.581 40.4515C85.565 40.4004 85.5482 40.3492 85.5306 40.2981Z" fill="#DD7128" stroke="white" stroke-width="16"/>
<path d="M63.6093 160.463C76.6999 160.463 87.964 153.426 95.6888 143.209C103.41 132.997 107.952 119.248 107.952 104.396C107.952 89.5445 103.41 75.7955 95.6888 65.5835C87.964 55.3669 76.6999 48.3301 63.6093 48.3301C50.5188 48.3301 39.2546 55.3669 31.5299 65.5835C23.8086 75.7955 19.2666 89.5445 19.2666 104.396C19.2666 119.248 23.8086 132.997 31.5299 143.209C39.2546 153.426 50.5188 160.463 63.6093 160.463Z" fill="#F77D2B" stroke="white" stroke-width="16"/>
<path d="M104.454 160.463C110.982 160.463 116.724 158.67 121.24 154.682C125.606 150.826 127.991 145.647 129.381 140.452C131.838 131.266 131.819 119.21 131.801 107.44C131.799 106.423 131.797 105.407 131.797 104.396C131.797 99.3273 132.122 94.4979 132.444 89.7015C132.522 88.5297 132.601 87.3599 132.674 86.189C133.032 80.5052 133.301 74.5031 132.471 69.1765C131.612 63.6658 129.433 57.9261 124.142 53.7992C119.033 49.8141 112.276 48.3301 104.454 48.3301C91.3635 48.3301 80.0994 55.3669 72.3746 65.5835C64.6533 75.7955 60.1113 89.5445 60.1113 104.396C60.1113 119.248 64.6533 132.997 72.3746 143.209C80.0994 153.426 91.3635 160.463 104.454 160.463Z" fill="#F77D2B" stroke="white" stroke-width="16"/>
<path d="M81.0188 160.463C108.194 160.463 127.331 133.573 127.331 104.396C127.331 75.2199 108.194 48.3301 81.0188 48.3301C53.8441 48.3301 34.707 75.2199 34.707 104.396C34.707 133.573 53.844 160.463 81.0188 160.463Z" fill="#DD7128" stroke="white" stroke-width="16"/>
<path d="M84.0318 160.463C96.1762 160.463 106.038 152.765 112.469 142.689C118.96 132.521 122.712 118.961 122.712 104.396C122.712 89.8322 118.96 76.2721 112.469 66.1041C106.038 56.0282 96.1762 48.3301 84.0318 48.3301C71.8874 48.3301 62.0255 56.0282 55.5942 66.1041C49.1041 76.2721 45.3516 89.8322 45.3516 104.396C45.3516 118.961 49.1041 132.521 55.5942 142.689C62.0255 152.765 71.8874 160.463 84.0318 160.463Z" fill="#F77D2B" stroke="white" stroke-width="16"/>
<path d="M80.9699 61.0635C81.2033 55.2383 80.121 49.1684 77.9652 42.8991C77.4127 41.2921 78.6111 39.6182 80.3102 39.6182H83.7072C84.8866 39.6182 85.9261 40.4406 86.1556 41.5973C87.4044 47.8994 87.7967 54.4726 87.5054 61.2628C87.4486 62.5861 86.3373 63.6267 85.0128 63.6267H83.4436C82.0396 63.628 80.9132 62.4675 80.9699 61.0635Z" fill="#DD7128"/>
<path d="M63.6093 152.463C83.6809 152.463 99.9521 130.943 99.9521 104.396C99.9521 77.8501 83.6809 56.3301 63.6093 56.3301C43.5378 56.3301 27.2666 77.8501 27.2666 104.396C27.2666 130.943 43.5378 152.463 63.6093 152.463Z" fill="#F77D2B"/>
<path d="M104.454 152.463C124.526 152.463 123.797 130.943 123.797 104.396C123.797 77.8501 132.296 56.3301 104.454 56.3301C84.3825 56.3301 68.1113 77.8501 68.1113 104.396C68.1113 130.943 84.3825 152.463 104.454 152.463Z" fill="#F77D2B"/>
<path d="M81.0188 152.463C102.178 152.463 119.331 130.943 119.331 104.396C119.331 77.8501 102.178 56.3301 81.0188 56.3301C59.8598 56.3301 42.707 77.8501 42.707 104.396C42.707 130.943 59.8598 152.463 81.0188 152.463Z" fill="#DD7128"/>
<path d="M84.0318 152.463C100.976 152.463 114.712 130.943 114.712 104.396C114.712 77.8501 100.976 56.3301 84.0318 56.3301C67.0876 56.3301 53.3516 77.8501 53.3516 104.396C53.3516 130.943 67.0876 152.463 84.0318 152.463Z" fill="#F77D2B"/>
<mask id="mask1_17215_5229" style="mask-type:alpha" maskUnits="userSpaceOnUse" x="27" y="39" width="99" height="114">
<path d="M80.969 61.0635C81.2023 55.2383 80.12 49.1684 77.9643 42.8991C77.4118 41.2921 78.6101 39.6182 80.3092 39.6182H83.7062C84.8857 39.6182 85.9251 40.4406 86.1547 41.5973C87.4035 47.8994 87.7958 54.4726 87.5044 61.2628C87.4476 62.5861 86.3363 63.6267 85.0118 63.6267H83.4426C82.0386 63.628 80.9122 62.4675 80.969 61.0635Z" fill="#DD7128"/>
<path d="M63.6084 152.463C83.6799 152.463 99.9511 130.943 99.9511 104.397C99.9511 77.8506 83.6799 56.3306 63.6084 56.3306C43.5368 56.3306 27.2656 77.8506 27.2656 104.397C27.2656 130.943 43.5368 152.463 63.6084 152.463Z" fill="#F77D2B"/>
<path d="M104.453 152.463C124.525 152.463 123.796 130.943 123.796 104.397C123.796 77.8506 132.295 56.3306 104.453 56.3306C84.3815 56.3306 68.1104 77.8506 68.1104 104.397C68.1104 130.943 84.3815 152.463 104.453 152.463Z" fill="#F77D2B"/>
<path d="M81.0179 152.463C102.177 152.463 119.33 130.943 119.33 104.397C119.33 77.8506 102.177 56.3306 81.0179 56.3306C59.8588 56.3306 42.7061 77.8506 42.7061 104.397C42.7061 130.943 59.8588 152.463 81.0179 152.463Z" fill="#DD7128"/>
<path d="M84.0308 152.463C100.975 152.463 114.711 130.943 114.711 104.397C114.711 77.8506 100.975 56.3306 84.0308 56.3306C67.0866 56.3306 53.3506 77.8506 53.3506 104.397C53.3506 130.943 67.0866 152.463 84.0308 152.463Z" fill="#F77D2B"/>
</mask>
<g mask="url(#mask1_17215_5229)">
<path d="M96.9207 144.589L79.1187 75.3395C78.612 73.6522 76.5707 73.3377 75.3484 74.6866L63.7371 87.5013L44.5351 54.1359C43.8825 52.9306 42.0008 52.7608 40.9314 53.9411L21.6811 75.1864C20.9172 76.0295 20.7851 77.138 21.4307 78.0301L56.9 125.214C57.7053 126.251 59.4273 126.276 60.344 125.264L69.3581 115.316L93.0528 146.611C94.351 148.709 97.6009 147.048 96.9207 144.589Z" fill="#D0651D"/>
<path d="M95.6602 149.286L77.3246 84.6348C76.8099 83.0577 74.8992 82.7148 73.7939 83.9346L63.2933 95.5235L44.5556 64.1061C43.917 62.9722 42.1588 62.7674 41.1916 63.8348L23.7827 83.0479C23.0919 83.8103 22.9967 84.8347 23.621 85.678L57.8692 130.316C58.6459 131.298 60.2516 131.364 61.0806 130.449L69.2324 121.453L92.1058 151.064C93.3687 153.041 96.356 151.583 95.6602 149.286Z" fill="url(#paint1_linear_17215_5229)"/>
</g>
</g>
<defs>
<linearGradient id="paint0_linear_17215_5229" x1="63.5" y1="82.5" x2="33" y2="114" gradientUnits="userSpaceOnUse">
<stop stop-color="#F8DD74"/>
<stop offset="1" stop-color="#DF7D2E"/>
</linearGradient>
<linearGradient id="paint1_linear_17215_5229" x1="63.5216" y1="93.0159" x2="37.4637" y2="119.928" gradientUnits="userSpaceOnUse">
<stop stop-color="white"/>
<stop offset="1" stop-color="white"/>
</linearGradient>
<clipPath id="clip0_17215_5229">
<rect width="210" height="182" fill="white"/>
</clipPath>
<clipPath id="clip1_17215_5229">
<rect width="83" height="41" fill="white" transform="translate(106 -2)"/>
</clipPath>
</defs>
</svg>
